<svg width="215" height="58" viewBox="0 0 215 58" fill="none" xmlns="http://www.w3.org/2000/svg">
<path d="M69.3836 40.5H75.1676L70.7756 33.66C72.5756 32.628 73.6316 30.876 73.6316 28.716C73.6316 25.14 71.0396 22.74 67.1516 22.74H58.8236V40.5H63.7676V34.692H65.9276L69.3836 40.5ZM63.7676 26.82H66.6236C67.7996 26.82 68.5436 27.588 68.5436 28.716C68.5436 29.844 67.5836 30.612 66.1436 30.612H63.7676V26.82ZM77.6083 40.5H82.5523V22.74H77.6083V40.5ZM95.547 40.74C98.907 40.74 101.571 39.564 103.419 37.068L100.107 34.092C99.099 35.724 97.827 36.66 95.667 36.66C92.739 36.66 90.771 34.644 90.771 31.596C90.771 28.596 92.667 26.58 95.523 26.58C97.347 26.58 98.907 27.324 99.699 28.5L102.795 25.332C100.947 23.316 98.403 22.5 95.499 22.5C89.595 22.5 85.659 26.1 85.659 31.548C85.659 37.044 89.643 40.74 95.547 40.74ZM118.786 22.74V29.388H110.77V22.74H105.826V40.5H110.77V33.468H118.786V40.5H123.73V22.74H118.786ZM138.382 40.5H144.166L139.774 33.66C141.574 32.628 142.63 30.876 142.63 28.716C142.63 25.14 140.038 22.74 136.15 22.74H127.822V40.5H132.766V34.692H134.926L138.382 40.5ZM132.766 26.82H135.622C136.798 26.82 137.542 27.588 137.542 28.716C137.542 29.844 136.582 30.612 135.142 30.612H132.766V26.82ZM146.606 40.5H151.55V22.74H146.606V40.5ZM167.617 30.972C168.889 30.108 169.609 28.932 169.609 27.564C169.609 24.66 167.449 22.74 164.233 22.74H155.641V40.5H164.041C168.049 40.5 170.689 38.34 170.689 35.124C170.689 33.228 169.537 31.74 167.617 30.972ZM160.585 26.82H163.129C163.945 26.82 164.521 27.324 164.521 28.068C164.521 28.836 163.921 29.34 163.009 29.34H160.585V26.82ZM163.801 36.42H160.585V33.42H163.849C164.881 33.42 165.601 34.02 165.601 34.908C165.601 35.82 164.881 36.42 163.801 36.42ZM185.699 30.972C186.971 30.108 187.691 28.932 187.691 27.564C187.691 24.66 185.531 22.74 182.315 22.74H173.723V40.5H182.123C186.131 40.5 188.771 38.34 188.771 35.124C188.771 33.228 187.619 31.74 185.699 30.972ZM178.667 26.82H181.211C182.027 26.82 182.603 27.324 182.603 28.068C182.603 28.836 182.003 29.34 181.091 29.34H178.667V26.82ZM181.883 36.42H178.667V33.42H181.931C182.963 33.42 183.683 34.02 183.683 34.908C183.683 35.82 182.963 36.42 181.883 36.42ZM191.804 40.5H196.748V22.74H191.804V40.5ZM214.591 22.74H199.423V26.82H204.535V40.5H209.479V26.82H214.591V22.74Z" fill="white"/>
<path d="M42.1853 43.5499H29.9375C29.8351 43.5499 29.7338 43.5229 29.6427 43.4756L24.3226 40.6001C23.9063 40.3762 23.408 40.6789 23.408 41.1491L23.4113 42.9694C23.4113 43.3147 23.1368 43.5937 22.7915 43.5937H17.8167C17.4758 43.5937 17.1968 43.3147 17.1968 42.9739L17.189 32.6756V14.6284C17.189 14.2875 17.4635 14.0085 17.8088 14.0085H22.7836C23.1245 14.0085 23.4035 14.2875 23.4035 14.6284V18.2767C23.4035 18.6221 23.6825 18.8966 24.0233 18.8966H27.8213C32.5958 18.8966 36.4647 22.7689 36.4647 27.54V33.8062C36.4647 34.2731 35.963 34.5712 35.5501 34.3474L32.9333 32.9389L28.151 30.357L27.4962 30.0037C27.3747 29.9374 27.296 29.808 27.296 29.6662V28.6886C27.296 27.8685 27.5041 27.2914 27.9125 26.9629C28.3242 26.6299 28.952 26.4645 29.7991 26.4645H30.545C30.7373 26.4645 30.8903 26.3115 30.8903 26.1191V24.0277C30.8903 23.0074 29.7845 22.3402 28.9047 22.8589C28.8968 22.8622 28.8935 22.8667 28.8856 22.8701C28.5211 23.0895 28.187 23.3527 27.8855 23.6587C27.6695 23.8826 27.2971 23.7251 27.2971 23.4157V22.7565C27.2971 22.5686 27.1441 22.4156 26.9517 22.4156H23.7545C23.5621 22.4156 23.4057 22.5686 23.4057 22.761V32.0861L28.1532 34.6522L36.467 39.1365L42.4812 42.3855C43.046 42.6915 42.83 43.551 42.1865 43.551L42.1853 43.5499Z" fill="black"/>
<path d="M42.1853 43.5499H29.9375C29.8351 43.5499 29.7338 43.5229 29.6427 43.4756L24.3226 40.6001C23.9063 40.3762 23.408 40.6789 23.408 41.1491L23.4113 42.9694C23.4113 43.3147 23.1368 43.5937 22.7915 43.5937H17.8167C17.4758 43.5937 17.1968 43.3147 17.1968 42.9739L17.189 32.6756V14.6284C17.189 14.2875 17.4635 14.0085 17.8088 14.0085H22.7836C23.1245 14.0085 23.4035 14.2875 23.4035 14.6284V18.2767C23.4035 18.6221 23.6825 18.8966 24.0233 18.8966H27.8213C32.5958 18.8966 36.4647 22.7689 36.4647 27.54V33.8062C36.4647 34.2731 35.963 34.5712 35.5501 34.3474L32.9333 32.9389L28.151 30.357L27.4962 30.0037C27.3747 29.9374 27.296 29.808 27.296 29.6662V28.6886C27.296 27.8685 27.5041 27.2914 27.9125 26.9629C28.3242 26.6299 28.952 26.4645 29.7991 26.4645H30.545C30.7373 26.4645 30.8903 26.3115 30.8903 26.1191V24.0277C30.8903 23.0074 29.7845 22.3402 28.9047 22.8589C28.8968 22.8622 28.8935 22.8667 28.8856 22.8701C28.5211 23.0895 28.187 23.3527 27.8855 23.6587C27.6695 23.8826 27.2971 23.7251 27.2971 23.4157V22.7565C27.2971 22.5686 27.1441 22.4156 26.9517 22.4156H23.7545C23.5621 22.4156 23.4057 22.5686 23.4057 22.761V32.0861L28.1532 34.6522L36.467 39.1365L42.4812 42.3855C43.046 42.6915 42.83 43.551 42.1865 43.551L42.1853 43.5499Z" fill="url(#paint0_linear_68_40)"/>
<defs>
<linearGradient id="paint0_linear_68_40" x1="10.6561" y1="20.9632" x2="47.2062" y2="48.7609" gradientUnits="userSpaceOnUse">
<stop stop-color="#57EBDE"/>
<stop offset="0.68" stop-color="#AEFB2A"/>
</linearGradient>
</defs>
</svg>
